<svg xmlns="http://www.w3.org/2000/svg" width="96" height="104" id="settings"><path d="M55.856 37.08c7.173 4.092 10.036 13.09 6.376 20.596-3.813 7.818-13.262 11.055-21.104 7.23-7.842-3.825-11.109-13.263-7.296-21.082a15.724 15.724 0 0 1 12.282-8.723 2.01 2.01 0 0 1 2.235 1.747 1.996 1.996 0 0 1-1.745 2.227 11.728 11.728 0 0 0-9.165 6.508c-2.845 5.833-.408 12.874 5.442 15.728 5.85 2.853 12.9.438 15.745-5.394 2.844-5.833.408-12.874-5.443-15.728a2.006 2.006 0 0 1-1.085-2.217 1.986 1.986 0 0 1-.253-.972V4h-7.69v13.51l-1.674.28a33.101 33.101 0 0 0-20.848 12.59l-1.07 1.402L8.225 24.68 4.38 31.32l12.632 7.27-.502 1.54a32.88 32.88 0 0 0-1.612 10.203c0 4.452.884 8.777 2.577 12.79l.686 1.625L4.38 72.68l3.845 6.64 14.088-8.109 1.087 1.203a33.07 33.07 0 0 0 19.08 10.463l1.675.28V100h7.69V83.157l1.674-.28A33.07 33.07 0 0 0 72.6 72.414l1.087-1.203 14.088 8.109 3.845-6.64-13.781-7.932.686-1.626a32.802 32.802 0 0 0 2.577-12.789A32.88 32.88 0 0 0 79.49 40.13l-.502-1.54 12.632-7.27-3.845-6.64-12.338 7.102-1.07-1.403a33.218 33.218 0 0 0-12.462-10.002 1.997 1.997 0 0 1-.977-2.656 2.009 2.009 0 0 1 2.664-.973 37.221 37.221 0 0 1 12.863 9.829l10.182-5.86a3.014 3.014 0 0 1 4.111 1.097l4.848 8.372a2.995 2.995 0 0 1-1.101 4.098l-10.72 6.17a36.928 36.928 0 0 1 1.34 9.88 36.83 36.83 0 0 1-2.243 12.692l11.623 6.69a2.995 2.995 0 0 1 1.101 4.098l-4.848 8.372a3.014 3.014 0 0 1-4.11 1.098l-12.175-7.008a37.082 37.082 0 0 1-18.606 10.226V101c0 1.657-1.347 3-3.009 3h-9.696a3.005 3.005 0 0 1-3.01-3V86.502a37.082 37.082 0 0 1-18.605-10.226L9.363 83.284a3.014 3.014 0 0 1-4.111-1.098L.404 73.814a2.995 2.995 0 0 1 1.101-4.098l11.623-6.69a36.83 36.83 0 0 1-2.242-12.693c0-3.374.454-6.69 1.338-9.88l-10.719-6.17a2.995 2.995 0 0 1-1.101-4.097l4.848-8.372a3.014 3.014 0 0 1 4.11-1.098l10.183 5.861a37.116 37.116 0 0 1 20.598-12.412V3c0-1.657 1.347-3 3.009-3h9.696a3.005 3.005 0 0 1 3.01 3v34l-.002.08Z"></path></svg>